<svg width="381" height="453" viewBox="0 0 381 453" fill="none" xmlns="http://www.w3.org/2000/svg">
<path d="M175.933 382.468C258.926 382.468 326.205 315.188 326.205 232.195C326.205 149.202 258.926 81.9226 175.933 81.9226C92.9395 81.9226 25.6602 149.202 25.6602 232.195C25.6602 315.188 92.9395 382.468 175.933 382.468Z" fill="white"/>
<path d="M175.933 383.967C92.2451 383.967 24.1602 315.882 24.1602 232.195C24.1602 148.507 92.2452 80.4224 175.933 80.4224C259.62 80.4224 327.705 148.507 327.705 232.195C327.705 315.882 259.62 383.967 175.933 383.967ZM175.933 83.4224C93.8994 83.4224 27.1602 150.162 27.1602 232.195C27.1602 314.228 93.8994 380.967 175.933 380.967C257.966 380.967 324.705 314.228 324.705 232.195C324.705 150.162 257.966 83.4224 175.933 83.4224Z" fill="#6C63FF"/>
<path d="M155.432 310.405C152.837 310.405 150.278 309.801 147.957 308.64C145.636 307.479 143.618 305.794 142.061 303.717L101.064 249.054C99.7474 247.298 98.7892 245.3 98.2445 243.173C97.6998 241.047 97.5792 238.834 97.8898 236.661C98.2003 234.488 98.9357 232.397 100.054 230.509C101.173 228.62 102.652 226.97 104.408 225.653C106.164 224.336 108.163 223.378 110.289 222.833C112.416 222.288 114.629 222.168 116.802 222.478C118.975 222.789 121.065 223.524 122.954 224.642C124.843 225.761 126.493 227.24 127.81 228.997L154.631 264.756L223.518 161.426C225.979 157.74 229.802 155.182 234.148 154.315C238.494 153.447 243.006 154.34 246.694 156.798C250.381 159.257 252.941 163.079 253.812 167.424C254.682 171.769 253.792 176.282 251.336 179.971L169.342 302.961C167.859 305.185 165.864 307.021 163.525 308.316C161.186 309.61 158.57 310.325 155.898 310.399C155.742 310.402 155.587 310.405 155.432 310.405Z" fill="#6C63FF"/>
<path d="M330.758 91.3116C331.176 88.4386 328.167 85.6225 324.037 85.0216C319.907 84.4207 316.22 86.2626 315.802 89.1356C315.384 92.0086 318.393 94.8248 322.523 95.4257C326.653 96.0266 330.34 94.1846 330.758 91.3116Z" fill="#E6E6E6"/>
<path d="M379.929 86.5136C380.347 83.6406 377.337 80.8244 373.207 80.2236C369.078 79.6227 365.391 81.4646 364.973 84.3376C364.555 87.2106 367.564 90.0267 371.694 90.6276C375.824 91.2284 379.511 89.3866 379.929 86.5136Z" fill="#3F3D56"/>
<path d="M317.292 51.5035C317.71 48.6305 314.701 45.8144 310.571 45.2135C306.441 44.6126 302.754 46.4545 302.336 49.3275C301.918 52.2005 304.927 55.0167 309.057 55.6175C313.187 56.2184 316.874 54.3765 317.292 51.5035Z" fill="#FF6584"/>
<path d="M295.927 35.1974C295.947 32.5599 294.475 30.4105 292.641 30.3966C290.806 30.3827 289.302 32.5096 289.282 35.1472C289.262 37.7847 290.733 39.9341 292.568 39.948C294.403 39.9618 295.907 37.8349 295.927 35.1974Z" fill="#E6E6E6"/>
<path d="M288.681 4.82583C288.7 2.1883 287.229 0.0389033 285.394 0.0250289C283.56 0.0111545 282.056 2.13806 282.036 4.77559C282.016 7.41312 283.487 9.56252 285.322 9.57639C287.157 9.59027 288.661 7.46336 288.681 4.82583Z" fill="#3F3D56"/>
<path d="M345.026 58.2777C345.046 55.6402 343.575 53.4908 341.74 53.4769C339.905 53.4631 338.402 55.59 338.382 58.2275C338.362 60.865 339.833 63.0144 341.668 63.0283C343.503 63.0422 345.006 60.9153 345.026 58.2777Z" fill="#E6E6E6"/>
<path d="M321.264 70.1418C321.284 67.5043 319.813 65.3549 317.978 65.341C316.144 65.3271 314.64 67.454 314.62 70.0916C314.6 72.7291 316.071 74.8784 317.906 74.8923C319.741 74.9062 321.245 72.7793 321.264 70.1418Z" fill="#FF6584"/>
<path d="M354.342 92.0695C354.362 89.432 352.89 87.2826 351.056 87.2687C349.221 87.2549 347.717 89.3818 347.697 92.0193C347.677 94.6568 349.149 96.8062 350.983 96.82C352.818 96.8339 354.322 94.7071 354.342 92.0695Z" fill="#3F3D56"/>
<path d="M48.7577 447.311C49.1757 444.438 46.1665 441.622 42.0366 441.021C37.9066 440.42 34.2198 442.262 33.8018 445.135C33.3838 448.008 36.3929 450.825 40.5228 451.425C44.6528 452.026 48.3397 450.184 48.7577 447.311Z" fill="#E6E6E6"/>
<path d="M97.9285 442.514C98.3465 439.641 95.3374 436.824 91.2075 436.223C87.0775 435.623 83.3907 437.465 82.9727 440.338C82.5547 443.211 85.5638 446.027 89.6937 446.628C93.8237 447.228 97.5105 445.387 97.9285 442.514Z" fill="#3F3D56"/>
<path d="M35.2928 407.503C35.7108 404.63 32.7017 401.814 28.5718 401.213C24.4418 400.612 20.755 402.454 20.337 405.327C19.9189 408.2 22.9281 411.016 27.058 411.617C31.188 412.218 34.8748 410.376 35.2928 407.503Z" fill="#FF6584"/>
<path d="M13.9266 391.197C13.9466 388.56 12.4754 386.411 10.6406 386.397C8.80575 386.383 7.30215 388.51 7.28221 391.147C7.26226 393.785 8.73352 395.934 10.5683 395.948C12.4031 395.962 13.9067 393.835 13.9266 391.197Z" fill="#E6E6E6"/>
<path d="M6.68051 360.826C6.70046 358.188 5.22923 356.039 3.39443 356.025C1.55962 356.011 0.0560571 358.138 0.0361127 360.776C0.0161682 363.413 1.4874 365.563 3.3222 365.576C5.157 365.59 6.66057 363.463 6.68051 360.826Z" fill="#3F3D56"/>
<path d="M63.0262 414.277C63.0462 411.64 61.5749 409.491 59.7401 409.477C57.9053 409.463 56.4018 411.59 56.3818 414.227C56.3619 416.865 57.8331 419.014 59.6679 419.028C61.5027 419.042 63.0063 416.915 63.0262 414.277Z" fill="#E6E6E6"/>
<path d="M39.2646 426.142C39.2845 423.504 37.8132 421.355 35.9784 421.341C34.1436 421.327 32.64 423.454 32.6201 426.092C32.6002 428.729 34.0714 430.878 35.9062 430.892C37.741 430.906 39.2446 428.779 39.2646 426.142Z" fill="#FF6584"/>
<path d="M72.3416 448.069C72.3616 445.432 70.8903 443.283 69.0555 443.269C67.2207 443.255 65.7172 445.382 65.6972 448.019C65.6773 450.657 67.1485 452.806 68.9833 452.82C70.8181 452.834 72.3217 450.707 72.3416 448.069Z" fill="#3F3D56"/>
</svg>
