<svg width="186" height="138" viewBox="0 0 186 138" fill="none" xmlns="http://www.w3.org/2000/svg">
<path d="M15.1445 18.0342H108.145C111.858 18.0342 115.419 19.5092 118.044 22.1342C120.67 24.7602 122.145 28.3212 122.145 32.0342H1.14453C1.14453 28.3212 2.61954 24.7602 5.24454 22.1342C7.87054 19.5092 11.4315 18.0342 15.1445 18.0342Z" fill="white"/>
<path d="M114.644 17.0341C114.099 17.0361 113.559 17.1281 113.044 17.3061C112.868 16.5961 112.438 15.9751 111.835 15.5611C111.232 15.1461 110.498 14.9671 109.772 15.0561C109.046 15.1461 108.377 15.4981 107.893 16.0471C107.409 16.5951 107.142 17.3021 107.144 18.0341C107.144 18.0491 107.147 18.0631 107.148 18.0781C106.773 18.1131 106.403 18.1901 106.044 18.3061C105.943 17.9021 105.759 17.5241 105.503 17.1951C105.248 16.8661 104.927 16.5941 104.561 16.3951C105.523 15.8641 106.283 15.0321 106.726 14.0271C107.288 14.0831 107.855 14.0191 108.392 13.8411C108.928 13.6631 109.42 13.3741 109.837 12.9921C110.254 12.6111 110.586 12.1461 110.811 11.6281C111.036 11.1091 111.149 10.5501 111.143 9.98511C111.138 9.42011 111.013 8.86212 110.777 8.34912C110.542 7.83512 110.2 7.37713 109.776 7.00513C109.351 6.63213 108.853 6.35312 108.313 6.18512C107.773 6.01812 107.205 5.96712 106.644 6.03412C106.099 6.03612 105.559 6.12812 105.045 6.30612C104.952 5.91312 104.781 5.54313 104.542 5.21713C104.302 4.89213 103.999 4.61912 103.651 4.41412C103.303 4.20912 102.917 4.07611 102.517 4.02411C102.116 3.97311 101.709 4.00313 101.32 4.11313C100.932 4.22213 100.569 4.41012 100.255 4.66412C99.9409 4.91812 99.6809 5.23211 99.4919 5.58911C99.3029 5.94611 99.1879 6.33811 99.1539 6.74011C99.1199 7.14311 99.1679 7.54812 99.2959 7.93112C99.1759 8.01412 99.0639 8.10811 98.9529 8.20111C98.3869 7.71411 97.6519 7.47011 96.9079 7.52011C96.5229 6.41611 95.7619 5.48211 94.7579 4.88211C93.7539 4.28311 92.5709 4.05511 91.4169 4.24011C90.2619 4.42511 89.2089 5.0111 88.4429 5.8941C87.6759 6.7771 87.2449 7.90211 87.2249 9.07111C86.8229 9.10311 86.4269 9.18212 86.0439 9.30612C86.0009 9.13712 85.9439 8.97211 85.8719 8.81311C86.2669 8.46411 86.5839 8.03711 86.8029 7.55811C87.0219 7.08011 87.1379 6.56012 87.1439 6.03412C87.0739 4.90812 86.5609 3.85612 85.7179 3.10712C84.8749 2.35712 83.7699 1.97212 82.6439 2.03412C82.0989 2.03612 81.5589 2.12812 81.0439 2.30612C80.9519 1.91312 80.7809 1.54313 80.5419 1.21713C80.3019 0.892134 79.9989 0.619125 79.6509 0.414125C79.3029 0.209125 78.9169 0.07611 78.5159 0.02411C78.1159 -0.02689 77.7089 0.00312974 77.3199 0.11313C76.9319 0.22213 76.5689 0.410125 76.2549 0.664125C75.9409 0.918125 75.6809 1.23211 75.4919 1.58911C75.3029 1.94611 75.1879 2.33811 75.1539 2.74011C75.1199 3.14311 75.1679 3.54812 75.2959 3.93112C74.6659 4.36912 74.1449 4.94512 73.7749 5.61612C73.4039 6.28712 73.1929 7.03511 73.1579 7.80011C73.1159 7.83811 73.0669 7.86911 73.0269 7.90811C73.1019 7.62311 73.1409 7.32912 73.1439 7.03412C73.0739 5.90812 72.5609 4.85612 71.7179 4.10712C70.8749 3.35712 69.7699 2.97212 68.6439 3.03412C68.0989 3.03612 67.5589 3.12812 67.0439 3.30612C66.9519 2.91312 66.7809 2.54313 66.5419 2.21713C66.3019 1.89213 65.9989 1.61912 65.6509 1.41412C65.3029 1.20912 64.9169 1.07611 64.5159 1.02411C64.1159 0.97311 63.7089 1.00313 63.3199 1.11313C62.9309 1.22213 62.5689 1.41012 62.2549 1.66412C61.9409 1.91812 61.6809 2.23211 61.4919 2.58911C61.3029 2.94611 61.1879 3.33811 61.1539 3.74011C61.1199 4.14311 61.1679 4.54812 61.2949 4.93112C60.6319 5.39012 60.0889 6.00311 59.7139 6.71811C59.3389 7.43211 59.1439 8.22712 59.1439 9.03412C59.1439 9.84112 59.3389 10.6361 59.7139 11.3501C60.0889 12.0651 60.6319 12.6781 61.2949 13.1371C61.0929 13.7181 61.0929 14.3501 61.2949 14.9311C60.7939 15.2811 60.3609 15.7191 60.0159 16.2231C59.8309 15.5511 59.4159 14.9661 58.8449 14.5681C58.2729 14.1701 57.5789 13.9851 56.8849 14.0451C56.1909 14.1051 55.5399 14.4061 55.0449 14.8961C54.5499 15.3861 54.2419 16.0351 54.1739 16.7281C53.7739 16.4931 53.3399 16.3181 52.8889 16.2091C53.6989 15.6741 54.3369 14.9161 54.7249 14.0271C55.2879 14.0831 55.8549 14.0191 56.3909 13.8411C56.9279 13.6631 57.4199 13.3741 57.8369 12.9921C58.2539 12.6111 58.5859 12.1461 58.8109 11.6281C59.0359 11.1091 59.1489 10.5501 59.1429 9.98511C59.1379 9.42011 59.0129 8.86212 58.7769 8.34912C58.5409 7.83512 58.1999 7.37713 57.7759 7.00513C57.3509 6.63213 56.8529 6.35312 56.3129 6.18512C55.7729 6.01812 55.2049 5.96712 54.6439 6.03412C54.0989 6.03612 53.5589 6.12812 53.0439 6.30612C52.9519 5.91312 52.7809 5.54313 52.5409 5.21713C52.3019 4.89213 51.9989 4.61912 51.6509 4.41412C51.3029 4.20912 50.9169 4.07611 50.5159 4.02411C50.1159 3.97311 49.7089 4.00313 49.3199 4.11313C48.9309 4.22213 48.5689 4.41012 48.2549 4.66412C47.9409 4.91812 47.6809 5.23211 47.4919 5.58911C47.3029 5.94611 47.1879 6.33811 47.1539 6.74011C47.1199 7.14311 47.1679 7.54812 47.2949 7.93112C47.2309 7.97612 47.1739 8.02811 47.1119 8.07611C46.9559 8.06111 46.8039 8.03412 46.6439 8.03412C46.0989 8.03612 45.5589 8.12812 45.0439 8.30612C45.0249 8.23112 44.9939 8.16111 44.9699 8.08811C45.0669 7.64311 45.0589 7.18111 44.9469 6.73911C44.8359 6.29811 44.6229 5.88812 44.3259 5.54212C44.0299 5.19612 43.6569 4.92413 43.2369 4.74713C42.8169 4.57013 42.3619 4.49211 41.9079 4.52011C41.6469 3.79511 41.2229 3.14011 40.6669 2.60611C40.1109 2.07211 39.4399 1.67412 38.7049 1.44312C37.9699 1.21212 37.1909 1.15411 36.4299 1.27411C35.6689 1.39411 34.9459 1.68812 34.3169 2.13312C33.6889 2.57912 33.1719 3.16413 32.8069 3.84213C32.4419 4.52113 32.2389 5.27511 32.2139 6.04511C32.1889 6.81511 32.3419 7.58013 32.6619 8.28113C32.9809 8.98213 33.4589 9.60012 34.0569 10.0861C33.7129 10.1251 33.3739 10.1991 33.0439 10.3061C32.9259 9.81912 32.6859 9.36912 32.3479 8.99912C32.0089 8.62912 31.5819 8.35113 31.1069 8.19013C30.6309 8.03013 30.1229 7.99212 29.6289 8.08112C29.1349 8.17012 28.6719 8.38212 28.2829 8.69812C27.8369 8.16912 27.2789 7.74512 26.6499 7.45712C26.0209 7.16912 25.3349 7.02512 24.6439 7.03412C24.0989 7.03612 23.5589 7.12812 23.0439 7.30612C22.9519 6.91312 22.7809 6.54313 22.5409 6.21713C22.3019 5.89213 21.9989 5.61912 21.6509 5.41412C21.3029 5.20912 20.9169 5.07611 20.5159 5.02411C20.1159 4.97311 19.7089 5.00313 19.3199 5.11313C18.9309 5.22213 18.5689 5.41012 18.2549 5.66412C17.9399 5.91812 17.6809 6.23211 17.4919 6.58911C17.3019 6.94611 17.1879 7.33811 17.1539 7.74011C17.1199 8.14311 17.1679 8.54812 17.2949 8.93112C16.6319 9.39012 16.0889 10.0031 15.7139 10.7181C15.3399 11.4321 15.1439 12.2271 15.1439 13.0341C15.1439 13.0491 15.1479 13.0641 15.1479 13.0791C14.4389 12.9721 13.7139 13.0501 13.0439 13.3061C12.9519 12.9131 12.7809 12.5431 12.5409 12.2171C12.3019 11.8921 11.9989 11.6191 11.6509 11.4141C11.3029 11.2091 10.9169 11.0761 10.5159 11.0241C10.1159 10.9731 9.70893 11.0031 9.31993 11.1131C8.93093 11.2221 8.56893 11.4101 8.25493 11.6641C7.93993 11.9181 7.68093 12.2321 7.49193 12.5891C7.30193 12.9461 7.18692 13.3381 7.15392 13.7401C7.11992 14.1431 7.16791 14.5481 7.29491 14.9311C6.33091 15.5841 5.62591 16.5541 5.30291 17.6731C4.97991 18.7921 5.05894 19.9891 5.52694 21.0551C5.99494 22.1221 6.82191 22.9911 7.86391 23.5111C8.90591 24.0301 10.0969 24.1691 11.2309 23.9011C11.4109 24.9441 11.9199 25.9031 12.6819 26.6381C13.4439 27.3731 14.4199 27.8461 15.4689 27.9891C16.5189 28.1311 17.5859 27.9361 18.5169 27.4311C19.4469 26.9261 20.1929 26.1371 20.6449 25.1801C24.2469 25.6481 27.9019 25.4841 31.4469 24.6931C31.7779 25.6411 32.3869 26.4661 33.1939 27.0611C34.0009 27.6571 34.9699 27.9951 35.9719 28.0311C36.9749 28.0671 37.9649 27.7991 38.8129 27.2631C39.6609 26.7271 40.3279 25.9481 40.7249 25.0271C41.4539 25.0121 42.1709 24.8351 42.8229 24.5081C43.2789 25.3141 43.9509 25.9771 44.7639 26.4221C45.5769 26.8671 46.4979 27.0771 47.4229 27.0271C48.3479 26.9771 49.2409 26.6691 50.0019 26.1391C50.7619 25.6091 51.3589 24.8781 51.7249 24.0271C52.8379 23.8161 53.9889 24.0011 54.9779 24.5511C55.9679 25.1001 56.7339 25.9791 57.1439 27.0341C57.8119 26.1181 58.6729 25.3601 59.6649 24.8111C60.6569 24.2621 61.7559 23.9361 62.8869 23.8551C63.8919 24.1351 64.9609 24.0861 65.9349 23.7131C66.9099 23.3411 67.7389 22.6661 68.3019 21.7871C67.9879 23.0051 68.1439 24.2971 68.7399 25.4041C69.3359 26.5121 70.3269 27.3541 71.5169 27.7631C72.7059 28.1711 74.0059 28.1171 75.1559 27.6101C76.3069 27.1031 77.2249 26.1801 77.7249 25.0271C78.4539 25.0121 79.1709 24.8351 79.8229 24.5081C80.2789 25.3141 80.9509 25.9771 81.7639 26.4221C82.5769 26.8671 83.4979 27.0771 84.4229 27.0271C85.3479 26.9771 86.2409 26.6691 87.0019 26.1391C87.7619 25.6091 88.3589 24.8781 88.7249 24.0271C89.4539 24.0121 90.1709 23.8351 90.8229 23.5081C91.1739 24.1341 91.6579 24.6771 92.2409 25.0971C92.8239 25.5181 93.4909 25.8071 94.1959 25.9441C94.9019 26.0801 95.6279 26.0621 96.3259 25.8891C97.0229 25.7171 97.6749 25.3941 98.2349 24.9441C98.4089 25.9011 98.8589 26.7861 99.5289 27.4901C100.2 28.1941 101.062 28.6861 102.009 28.9051C102.956 29.1251 103.947 29.0621 104.859 28.7261C105.771 28.3891 106.564 27.7921 107.141 27.0101C107.742 27.4701 108.439 27.7861 109.18 27.9361C109.921 28.0851 110.687 28.0641 111.418 27.8721C112.15 27.6811 112.828 27.3251 113.401 26.8321C113.974 26.3391 114.427 25.7211 114.725 25.0271C115.288 25.0821 115.855 25.0191 116.391 24.8411C116.928 24.6631 117.42 24.3741 117.837 23.9921C118.254 23.6111 118.586 23.1461 118.811 22.6281C119.036 22.1091 119.149 21.5501 119.143 20.9851C119.138 20.4201 119.013 19.8621 118.777 19.3491C118.541 18.8351 118.2 18.3771 117.776 18.0041C117.351 17.6321 116.853 17.3531 116.313 17.1851C115.773 17.0181 115.204 16.9671 114.644 17.0341ZM25.2649 14.9701C25.2599 14.9941 25.2569 15.0191 25.2519 15.0431C25.2149 15.0421 25.1809 15.0341 25.1439 15.0341C24.9939 15.0381 24.8449 15.0531 24.6979 15.0791C24.7059 15.0611 24.7179 15.0451 24.7259 15.0271C24.9059 15.0181 25.0869 14.9991 25.2649 14.9701ZM67.0439 13.3061C67.0299 13.2481 67.0049 13.1941 66.9869 13.1381C67.7509 12.6081 68.3519 11.8781 68.7259 11.0271C69.3829 11.0231 70.0329 10.8811 70.6319 10.6101C71.2309 10.3391 71.7659 9.94412 72.2019 9.45212C72.1639 9.64412 72.1439 9.83912 72.1439 10.0341C72.1479 10.3391 72.1989 10.6421 72.2959 10.9311C71.4369 11.5301 70.7869 12.3821 70.4369 13.3681C69.3489 12.9451 68.1469 12.9231 67.0439 13.3061ZM96.9949 13.6791C96.9929 13.6181 96.9999 13.5551 96.9959 13.4941C97.1239 13.4931 97.2509 13.4851 97.3779 13.4681C97.5719 14.1151 97.8959 14.7151 98.3299 15.2331C98.2359 15.2591 98.1359 15.2751 98.0439 15.3061C97.8829 14.6631 97.5139 14.0911 96.9949 13.6791Z" fill="#FBC979"/>
<path d="M11.2174 23.0342C9.79941 23.0342 8.39541 23.3232 7.09241 23.8832C5.78941 24.4432 4.61443 25.2632 3.63843 26.2932C2.66243 27.3222 1.90742 28.5402 1.41742 29.8712C0.927421 31.2032 0.714407 32.6202 0.790407 34.0362L7.56241 127.151C7.70541 129.82 8.86642 132.333 10.8054 134.171C12.7454 136.01 15.3164 137.034 17.9894 137.034H105.299C107.972 137.034 110.543 136.01 112.483 134.171C114.422 132.333 115.583 129.82 115.726 127.151L122.497 34.0362C122.574 32.6202 122.36 31.2032 121.871 29.8712C121.381 28.5402 120.626 27.3222 119.65 26.2932C118.674 25.2632 117.499 24.4432 116.196 23.8832C114.893 23.3232 113.489 23.0342 112.071 23.0342H11.2174Z" fill="white"/>
<path d="M22.1445 23.0342H16.1445V137.034H22.1445V23.0342Z" fill="#FF4A4A"/>
<path d="M39.1445 23.0342H33.1445V137.034H39.1445V23.0342Z" fill="#FF4A4A"/>
<path d="M56.1445 23.0342H50.1445V137.034H56.1445V23.0342Z" fill="#FF4A4A"/>
<path d="M73.1445 23.0342H67.1445V137.034H73.1445V23.0342Z" fill="#FF4A4A"/>
<path d="M90.1445 23.0342H84.1445V137.034H90.1445V23.0342Z" fill="#FF4A4A"/>
<path d="M107.145 23.0342H101.145V137.034H107.145V23.0342Z" fill="#FF4A4A"/>
<path d="M172.102 137H152.906C150.441 136.999 148.07 136.057 146.279 134.366C144.488 132.675 143.414 130.364 143.276 127.907L140.019 70.1687C139.945 68.8606 139.565 64.2428 140.015 63.0123C140.466 61.7818 141.737 63.9643 142.639 63.0123C143.54 62.0603 144.627 61.3021 145.833 60.7841C147.038 60.2661 148.337 59.9993 149.649 60H175.359C176.671 59.9993 177.97 60.2662 179.175 60.7842C180.381 61.3023 181.467 62.0605 182.369 63.0126C183.271 63.9646 184.538 62.2694 184.988 63.5C185.439 64.7306 185.063 68.8611 184.988 70.1692L181.732 127.907C181.594 130.364 180.52 132.675 178.729 134.366C176.938 136.057 174.567 136.999 172.102 137Z" fill="#FF4A4A"/>
<path d="M162.5 67C175.479 67 186 65.2091 186 62.9999C186 60.7908 175.479 59 162.5 59C149.521 59 139 60.7908 139 62.9999C139 65.2091 149.521 67 162.5 67Z" fill="white"/>
<path d="M164.284 64C164.059 64 163.836 63.9587 163.627 63.8785C163.419 63.7984 163.23 63.6808 163.071 63.5327C162.911 63.3846 162.785 63.2088 162.699 63.0152C162.613 62.8217 162.568 62.6143 162.568 62.4048V32.1905H151.71C151.256 32.189 150.821 32.0203 150.5 31.7213C150.18 31.4223 150 31.0173 150 30.5952C150 30.1731 150.18 29.7682 150.5 29.4692C150.821 29.1701 151.256 29.0015 151.71 29H164.284C164.509 29 164.733 29.0412 164.941 29.1213C165.149 29.2015 165.338 29.319 165.497 29.4672C165.657 29.6153 165.783 29.7912 165.869 29.9848C165.956 30.1783 166 30.3857 166 30.5952V62.4048C166 62.6143 165.956 62.8217 165.869 63.0152C165.783 63.2088 165.657 63.3847 165.497 63.5328C165.338 63.681 165.149 63.7985 164.941 63.8787C164.733 63.9588 164.509 64 164.284 64V64Z" fill="white"/>
<path d="M168 65L173 65.3991C173 65.3991 172.292 69.7149 172 72.5C170.404 87.7081 175.6 96.2087 175.5 111.5C175.467 116.58 175.504 119.444 175 124.5C174.51 129.419 173 137 173 137L164 137C164 137 168.907 126.547 170.5 119.5C171.761 113.925 172.664 110.706 173 105C173.252 100.712 172.5 94 172.5 94C172.5 94 171.383 87.2222 170.5 83C169.616 78.7692 168.889 76.8048 168.5 72.5C168.236 69.5765 168 65 168 65Z" fill="white"/>
</svg>
