<svg width="474" height="474" xmlns="http://www.w3.org/2000/svg" xmlns:xlink="http://www.w3.org/1999/xlink" overflow="hidden"><defs><clipPath id="clip0"><rect x="67" y="127" width="474" height="474"/></clipPath><clipPath id="clip1"><path d="M155.903 127.774 540.349 216.13 451.993 600.576 67.5473 512.22Z" fill-rule="evenodd" clip-rule="evenodd"/></clipPath><clipPath id="clip2"><path d="M155.903 127.774 540.349 216.13 451.993 600.576 67.5473 512.22Z" fill-rule="evenodd" clip-rule="evenodd"/></clipPath><clipPath id="clip3"><path d="M155.903 127.774 540.349 216.13 451.993 600.576 67.5473 512.22Z" fill-rule="evenodd" clip-rule="evenodd"/></clipPath></defs><g clip-path="url(#clip0)" transform="translate(-67 -127)"><g clip-path="url(#clip1)"><g clip-path="url(#clip2)"><g clip-path="url(#clip3)"><path d="M418.156 336.878C423.817 330.59 426.951 322.456 426.79 313.986 436.299 305.632 440.938 292.784 437.2 279.698 436.242 276.527 435.193 273.756 433.25 271.201 438.488 274.092 441.881 279.509 442.411 286.377 442.319 286.777 442.227 287.178 442.135 287.578 449.651 289.727 454.862 296.406 455.608 304.167 456.203 314.422 448.295 323.145 438.04 323.74 438.445 329.314 436.047 334.244 432.232 338.004 427.735 337.393 419.758 337.246 418.156 336.878ZM349.204 515.818 326.377 510.571 375.395 357.828C390.981 359.724 404.657 360.759 415.929 361.241L349.204 515.818ZM310.359 506.89 281.125 500.171 316.099 347.995C331.317 351.492 345.517 353.913 359.009 355.748L310.359 506.89ZM321.739 283.097C325.895 281.523 330.484 281.734 334.705 283.547 334.798 283.147 335.198 283.239 335.29 282.839 341.844 276.334 351.916 276.541 358.512 282.695 365.108 288.848 364.81 299.32 358.656 305.917 358.564 306.317 358.164 306.225 358.071 306.625 360.88 312.752 360.024 320.144 355.039 325.323 353.378 327.049 351.408 328.283 349.129 329.024 346.726 328.472 330.524 325.591 318.109 322.738 321.617 318.485 324.415 313.647 325.795 307.64 327.328 299.138 325.965 290.392 321.739 283.097ZM265.106 496.49 235.872 489.771 258.092 332.555C270.63 336.702 284.955 340.415 300.081 344.313L265.106 496.49ZM197.428 480.935 207.596 313.782C217.147 318.085 228.793 322.448 242.441 327.272L219.854 486.089 197.428 480.935ZM202.079 275.412C204.196 266.201 213.554 260.341 222.764 262.458 224.767 262.918 226.677 263.779 228.095 264.948 228.187 264.548 228.279 264.147 228.371 263.747 230.488 254.536 229.033 246.191 238.244 248.308 239.445 248.584 240.246 248.768 240.955 249.352 240.863 249.753 241.171 250.245 241.079 250.646 241.604 252.031 241.728 253.325 242.345 254.31 241.241 259.115 241.738 264.289 242.636 269.555 237.743 274.333 233.868 280.188 232.211 287.396 231.383 291.001 231.047 294.296 231.42 298.177 219.065 293.229 209.113 288.834 201.472 285.391 201.5 281.603 201.343 278.616 202.079 275.412ZM270.744 222.469C272.129 221.945 273.423 221.82 274.716 221.696 276.93 217.567 281.054 214.299 286.011 212.908 296.326 210.219 306.803 216 309.492 226.315 309.708 227.208 309.833 228.502 310.049 229.395 316.949 230.559 323.329 235.82 325.06 242.963 327.624 251.985 322.921 261.445 314.916 265.086 310.35 255.604 301.935 248.189 291.122 245.704 279.909 243.127 268.609 246.433 260.669 253.462 260.762 253.061 260.762 253.061 260.854 252.661 259.62 250.691 258.386 248.721 257.737 246.042 254.648 235.635 260.829 225.25 270.744 222.469ZM296.484 317.768C279.757 313.502 264.815 308.803 251.876 304.565 249.409 300.625 248.419 295.759 249.615 290.553 251.456 282.544 258.135 277.333 265.495 276.495 265.587 276.094 265.679 275.694 265.771 275.293 268.072 265.282 277.922 259.113 287.933 261.414 297.945 263.715 304.114 273.565 301.813 283.577 301.721 283.977 301.629 284.378 301.536 284.778 308.193 288.838 311.434 296.75 309.685 304.359 307.72 311.075 302.335 316.161 296.484 317.768ZM346.031 239.772C348.033 240.233 349.944 241.093 351.361 242.262 351.453 241.862 351.545 241.461 351.638 241.061 353.754 231.85 363.112 225.99 372.323 228.107 381.533 230.224 387.393 239.581 385.276 248.792 385.184 249.193 385.092 249.593 385 249.993 385 249.993 385 249.993 384.6 249.901 379.394 248.705 373.511 248.618 368.462 250.409 361.719 252.232 355.717 256.333 351.04 262.005 346.944 261.485 342.663 261.766 338.29 262.447 341.641 255.206 342.188 247.322 340.549 239.777 343.136 239.529 344.83 239.496 346.031 239.772ZM393.586 276.842C395.741 274.808 397.711 273.574 400.882 272.616 409.904 270.052 419.179 275.557 421.435 284.086 423.999 293.107 418.495 302.383 409.965 304.639 409.072 304.855 408.179 305.072 407.779 304.979 408.704 306.457 409.63 307.934 410.062 309.72 412.627 318.742 407.122 328.017 398.593 330.273 391.449 332.004 384.425 329.547 380.323 323.545 379.338 324.162 377.953 324.686 376.567 325.211 375.674 325.428 374.781 325.644 373.488 325.768 375.485 320.746 376.373 315.048 375.968 309.474 383.01 297.179 380.901 280.673 370.636 270.303 369.927 269.718 369.218 269.134 368.108 268.457 369.678 267.131 371.556 266.298 373.834 265.557 381.779 264.01 390.438 268.529 393.586 276.842ZM472.239 303.351C471.829 292.295 466.061 282.537 457.278 276.724 452.614 262.16 438.561 251.763 422.331 252.67 417.649 252.859 413.093 254.342 408.844 256.317 407.643 256.041 406.349 256.165 405.548 255.981 404.715 254.103 403.79 252.625 402.464 251.056 405.312 233.159 394.025 216.23 376.405 212.181 363.59 209.235 351.12 213.959 343.121 223.082 339.733 223.147 336.746 223.303 333.574 224.261 330.923 221.122 327.379 218.199 323.558 216.478 319.083 206.596 310.268 199.089 299.055 196.512 293.449 195.223 287.074 195.444 281.716 196.743 275.373 198.658 269.555 201.959 265.555 206.52 253.763 210.134 244.778 219.875 241.709 231.396 229.202 228.943 222.524 234.154 220.039 244.967 204.085 244.673 189.834 255.311 186.153 271.33 185.785 272.932 185.232 275.335 185.232 275.335L171.574 499.869 363.797 544.047 453.544 337 452.526 335.923C464.779 330.307 472.806 317.395 472.239 303.351Z" fill="#FFEEE0"/></g></g></g></g></svg>